<svg width="24" height="24" viewBox="0 0 24 24" fill="none" xmlns="http://www.w3.org/2000/svg">
<g clip-path="url(#clip0_11_339)">
<path d="M12 24C18.6518 24 24 18.6518 24 12C24 5.34818 18.6518 0 12 0C5.34818 0 0 5.34818 0 12C0 18.6518 5.34818 24 12 24Z" fill="#2775CA"/>
<path d="M15.3013 13.8999C15.3013 12.1498 14.2519 11.5501 12.1497 11.2992C10.6506 11.1004 10.3507 10.6995 10.3507 9.9988C10.3507 9.29809 10.8526 8.84834 11.8499 8.84834C12.7494 8.84834 13.2513 9.14817 13.499 9.89777C13.5479 10.0477 13.6978 10.1487 13.851 10.1487H14.6527C14.8515 10.1487 15.0047 9.9988 15.0047 9.79673V9.74785C14.8059 8.64627 13.9031 7.79891 12.7559 7.69787V6.49853C12.7559 6.29972 12.606 6.14654 12.3551 6.09766H11.6055C11.4067 6.09766 11.2535 6.24758 11.2046 6.49853V7.64899C9.70542 7.84779 8.75376 8.84834 8.75376 10.0998C8.75376 11.7489 9.75431 12.4008 11.8532 12.6484C13.2546 12.8994 13.7043 13.1992 13.7043 13.9977C13.7043 14.7962 13.0036 15.347 12.0552 15.347C10.7549 15.347 10.3051 14.7962 10.1552 14.0466C10.1063 13.8478 9.95637 13.7468 9.80319 13.7468H8.95257C8.75376 13.7468 8.60059 13.8967 8.60059 14.0987V14.1476C8.79939 15.3991 9.60113 16.2986 11.2502 16.5463V17.7457C11.2502 17.9445 11.4002 18.0977 11.6511 18.1465H12.4007C12.5995 18.1465 12.7527 17.9966 12.8016 17.7457V16.5463C14.3007 16.2954 15.3013 15.2459 15.3013 13.8967V13.8999Z" fill="white"/>
<path d="M9.45115 19.1505C5.55001 17.7491 3.55218 13.4015 5.00248 9.54922C5.75207 7.45036 7.40118 5.85014 9.45115 5.10055C9.64995 4.99951 9.75099 4.8496 9.75099 4.59865V3.89794C9.75099 3.69913 9.64995 3.54596 9.45115 3.49707C9.40226 3.49707 9.30123 3.49707 9.25234 3.54596C4.50058 5.05166 1.89982 10.1 3.399 14.8518C4.29851 17.6513 6.44952 19.8023 9.24908 20.7019C9.44789 20.8029 9.64995 20.7019 9.69884 20.503C9.74773 20.4542 9.74773 20.402 9.74773 20.3042V19.6035C9.74773 19.4536 9.59781 19.2516 9.44789 19.1538L9.45115 19.1505ZM14.7504 3.54922C14.5516 3.44818 14.3496 3.54922 14.3007 3.74802C14.2518 3.79691 14.2518 3.84905 14.2518 3.94683V4.64753C14.2518 4.84634 14.4017 5.0484 14.5516 5.14943C18.4528 6.55085 20.4506 10.8985 19.0003 14.7507C18.2507 16.8496 16.6016 18.4498 14.5516 19.1994C14.3528 19.3004 14.2518 19.4504 14.2518 19.7013V20.402C14.2518 20.6008 14.3528 20.754 14.5516 20.8029C14.6005 20.8029 14.7016 20.8029 14.7504 20.754C19.4989 19.2548 22.0997 14.2032 20.6005 9.4547C19.701 6.60625 17.5011 4.45525 14.7504 3.55573V3.54922Z" fill="white"/>
</g>
<defs>
<clipPath id="clip0_11_339">
<rect width="24" height="24" fill="white"/>
</clipPath>
</defs>
</svg>
